# xmcd
# Track frame offsets:
# 183
# 21048
# 38005
# 55905
# 75913
# 94880
# 113858
# 131890
# 150930
# 168083
#
# Disc length: 2553 seconds
# Revision: 0
# Processed by: cddbd v1.5PL3 Copyright (c) Steve Scherf et al.
# Submitted via: VisiTrax 2.9.9.202 - For more info visit www.synapsa.com
#
DISCID=6b09f70a
DTITLE=Kenny Rogers - Greatest Hits
DYEAR=1988
DGENRE=Country
TTITLE0=You And I
TTITLE1=Crazy
TTITLE2=This Woman
TTITLE3=What About Me?
TTITLE4=Morning Desire
TTITLE5=Islands In The Stream
TTITLE6=Make no Mistake, She's Mine
TTITLE7=Buried Treasure
TTITLE8=Twenty Years Ago
TTITLE9=I Prefer The Moonlight
EXTD=1990/03/02 - 02/03/1990 - Carrefour - Cr$ 410,00 - dolar: Cr$ 71,0
EXTD=0 - valor em dolares: US$ 5,73 - BMG Brasil - upload by MSF - 27/02/20
EXTD=04
EXTT0=
EXTT1=
EXTT2=
EXTT3=
EXTT4=
EXTT5=
EXTT6=
EXTT7=
EXTT8=
EXTT9=
PLAYORDER=
